#!OML:ASF F:\VICON\USERDATA\INSTALL\rory3\rory3.ASF
:FULLY-SPECIFIED
:DEGREES
2467
root 0.264979 17.4491 0.357967 1.99071 2.4199 -0.421881
lowerback -3.21594 -0.772941 -2.94924
upperback -4.97724 -0.982441 0.830097
thorax -3.26231 -0.372006 2.50439
lowerneck -10.8092 -12.9472 -20.3731
upperneck 21.5028 -19.4599 19.5824
head 13.1343 -8.75253 7.55211
rclavicle 8.32644e-015 -3.30014e-015
rhumerus 26.8434 7.59543 -85.695
rradius 33.2483
rwrist 54.496
rhand -52.0203 44.9478
rfingers 7.12502
rthumb -24.5269 16.4986
lclavicle 8.32644e-015 -3.30014e-015
lhumerus 29.5147 -17.2093 86.157
lradius 32.7892
lwrist -43.9242
lhand -44.6375 36.6269
lfingers 7.12502
lthumb -17.4348 65.865
rfemur 0 0 0
rtibia 0
rfoot 0 0
rtoes 0
lfemur -3.89589 -17.6167 -18.3222
ltibia 15.189
lfoot -12.9194 11.3002
ltoes -18.8824
2468
root 0.262676 17.4466 0.359784 1.90947 2.46673 -0.420447
lowerback -3.16456 -0.785815 -2.97659
upperback -4.95836 -1.00039 0.844155
thorax -3.26984 -0.379857 2.53475
lowerneck -10.8596 -12.937 -20.369
upperneck 21.5983 -19.4414 19.5384
head 13.1719 -8.74344 7.54011
rclavicle 6.16912e-015 -1.62561e-014
rhumerus 26.7809 7.68017 -85.6246
rradius 33.4488
rwrist 54.5823
rhand -51.9624 45.6231
rfingers 7.12502
rthumb -24.4714 17.1664
lclavicle 6.16912e-015 -1.62561e-014
lhumerus 29.5007 -17.074 86.2455
lradius 32.6782
lwrist -43.9251
lhand -44.5994 36.3724
lfingers 7.12502
lthumb -17.3982 65.6138
rfemur 0 0 0
rtibia 0
rfoot 0 0
rtoes 0
lfemur -3.83424 -17.602 -18.3386
ltibia 15.2508
lfoot -12.8494 11.2251
ltoes -19.1174
2469
root 0.260363 17.4459 0.36241 1.87221 2.53282 -0.455482
lowerback -3.15832 -0.764689 -2.94371
upperback -4.96837 -0.972744 0.840787
thorax -3.28599 -0.366779 2.51314
lowerneck -10.7952 -12.9531 -20.3134
upperneck 21.6317 -19.4692 19.4511
head 13.1591 -8.76216 7.49246
rclavicle -1.81702e-015 1.66886e-014
rhumerus 26.6771 7.68714 -85.5208
rradius 33.593
rwrist 54.5974
rhand -52.1408 46.2244
rfingers 7.12502
rthumb -24.6424 17.7909
lclavicle -1.81702e-015 1.66886e-014
lhumerus 29.4562 -17.0802 86.3604
lradius 32.5614
lwrist -43.9594
lhand -44.7336 36.5631
lfingers 7.12502
lthumb -17.5273 65.793
rfemur 0 0 0
rtibia 0
rfoot 0 0
rtoes 0
lfemur -3.82126 -17.5709 -18.293
ltibia 15.2964
lfoot -12.9479 11.1345
ltoes -19.0148
2470
root 0.257738 17.4453 0.364377 1.84799 2.55762 -0.483091
lowerback -3.14175 -0.742959 -2.91588
upperback -4.98812 -0.944502 0.845313
thorax -3.31795 -0.352704 2.50276
lowerneck -10.8172 -12.9593 -20.218
upperneck 21.7597 -19.4686 19.2858
head 13.1791 -8.76507 7.41302
rclavicle 6.11263e-015 3.47252e-015
rhumerus 26.5715 7.71349 -85.4479
rradius 33.7392
rwrist 54.6746
rhand -51.6447 45.6488
rfingers 7.12502
rthumb -24.1669 17.1512
lclavicle 6.11263e-015 3.47252e-015
lhumerus 29.4241 -17.1096 86.4197
lradius 32.4141
lwrist -43.9615
lhand -44.7754 36.7814
lfingers 7.12502
lthumb -17.5675 66.0077
rfemur 0 0 0
rtibia 0
rfoot 0 0
rtoes 0
lfemur -3.81472 -17.5068 -18.2575
ltibia 15.3342
lfoot -13.003 11.1276
ltoes -19.1867
2471
root 0.255486 17.4441 0.366399 1.83056 2.57244 -0.511463
lowerback -3.14417 -0.792196 -2.97125
upperback -5.01666 -1.00708 0.961882
thorax -3.33997 -0.378988 2.65437
lowerneck -10.7833 -12.9045 -20.3416
upperneck 21.8405 -19.346 19.1759
head 13.1729 -8.73208 7.42177
rclavicle -1.85988e-014 -1.06101e-014
rhumerus 26.5086 7.98579 -85.3319
rradius 33.8538
rwrist 54.7491
rhand -51.0732 44.894
rfingers 7.12502
rthumb -23.6189 16.3247
lclavicle -1.85988e-014 -1.06101e-014
lhumerus 29.3661 -16.8633 86.5221
lradius 32.1853
lwrist -44.1159
lhand -44.7759 36.9865
lfingers 7.12502
lthumb -17.568 66.2127
rfemur 0 0 0
rtibia 0
rfoot 0 0
rtoes 0
lfemur -3.80656 -17.4811 -18.2243
ltibia 15.3625
lfoot -13.0032 11.1088
ltoes -19.1802
2472
root 0.254133 17.4428 0.367667 1.77853 2.62633 -0.440223
lowerback -3.08447 -0.85271 -3.12706
upperback -5.04359 -1.08663 1.04651
thorax -3.39303 -0.41024 2.83043
lowerneck -10.709 -12.841 -20.3847
upperneck 21.8625 -19.2101 19.0239
head 13.1149 -8.69326 7.40159
rclavicle 2.06239e-015 -3.926e-015
rhumerus 26.4763 8.15137 -85.3149
rradius 33.8265
rwrist 54.878
rhand -51.1114 44.9442
rfingers 7.12502
rthumb -23.6554 16.3796
lclavicle 2.06239e-015 -3.926e-015
lhumerus 29.303 -16.8616 86.3928
lradius 32.1104
lwrist -44.0432
lhand -44.7263 37.5207
lfingers 7.12502
lthumb -17.5202 66.7512
rfemur 0 0 0
rtibia 0
rfoot 0 0
rtoes 0
lfemur -3.75028 -17.5353 -18.3124
ltibia 15.3702
lfoot -13.0534 11.0367
ltoes -18.6646
